<?xml version="1.0" standalone="no"?>
<!DOCTYPE svg PUBLIC "-//W3C//DTD SVG 20010904//EN"
 "http://www.w3.org/TR/2001/REC-SVG-20010904/DTD/svg10.dtd">
<svg version="1.0" xmlns="http://www.w3.org/2000/svg"
 width="563.000000pt" height="496.000000pt" viewBox="0 0 563.000000 496.000000"
 preserveAspectRatio="xMidYMid meet">

<g transform="translate(0.000000,496.000000) scale(0.100000,-0.100000)"
fill="#000000" stroke="none">
<path d="M0 2623 c1 -1982 3 -2333 14 -2307 18 42 33 49 46 24 14 -27 -2 -58
-35 -66 l-25 -6 0 -134 0 -134 2815 0 2815 0 0 2480 0 2480 -2815 0 -2815 0 0
-2337z m4464 181 c9 -3 13 -10 10 -15 -3 -5 13 -9 36 -9 37 0 41 -2 38 -22 -2
-19 -11 -24 -43 -28 -44 -6 -85 8 -85 28 0 14 18 52 25 52 2 0 10 -3 19 -6z
m-884 -69 c0 -8 -4 -15 -10 -15 -5 0 -10 7 -10 15 0 8 5 15 10 15 6 0 10 -7
10 -15z m133 -464 c18 -18 -3 -30 -74 -45 -72 -15 -119 -6 -115 22 5 29 46 43
114 39 35 -3 69 -10 75 -16z m-2252 -1018 c-12 -20 -14 -14 -5 12 4 9 9 14 11
11 3 -2 0 -13 -6 -23z m719 2 c0 -21 -5 -25 -30 -25 -31 0 -39 17 -18 38 22
22 48 14 48 -13z m-896 -359 c-4 -12 -10 -23 -14 -26 -4 -3 -4 -14 0 -25 6
-17 -3 -83 -16 -124 -11 -35 -24 11 -27 101 -4 106 2 123 39 106 18 -9 23 -16
18 -32z m50 -56 c3 1 19 -1 35 -5 21 -4 33 -15 40 -37 6 -18 7 -34 3 -37 -5
-3 -11 -14 -15 -23 -9 -24 -48 -23 -81 3 -22 17 -27 29 -25 58 3 42 18 68 29
51 4 -7 10 -11 14 -10z m3349 -460 c-3 -12 -8 -19 -11 -16 -5 6 5 36 12 36 2
0 2 -9 -1 -20z m-3403 -29 c16 -31 12 -41 -15 -41 -21 0 -25 5 -25 30 0 35 23
41 40 11z m-1238 -163 c-9 -9 -12 -7 -12 12 0 19 3 21 12 12 9 -9 9 -15 0 -24z
m4941 -3 c48 -9 52 -17 28 -55 -10 -18 -22 -27 -25 -22 -4 6 -20 10 -36 10
-30 -1 -100 30 -100 44 0 13 55 38 75 34 11 -3 37 -8 58 -11z m189 -27 c-20
-21 -52 -15 -52 8 0 10 10 14 35 12 34 -2 35 -3 17 -20z m405 -45 c7 -18 -44
-66 -60 -56 -5 3 -4 9 2 13 7 4 11 11 10 16 -1 5 -1 17 0 27 1 22 39 23 48 0z
m-1327 2 c0 -2 -13 -11 -30 -20 -38 -20 -120 -20 -120 -1 0 8 6 17 13 19 16 7
137 9 137 2z m757 -47 c-3 -8 -6 -5 -6 6 -1 11 2 17 5 13 3 -3 4 -12 1 -19z
m268 15 c-24 -6 -44 -23 -27 -23 7 0 12 -5 12 -11 0 -5 -4 -8 -9 -5 -5 4 -11
0 -14 -6 -3 -9 -9 -7 -20 7 -20 26 -7 40 40 41 21 1 29 0 18 -3z"/>
</g>
</svg>
